<?xml version="1.0" standalone="no"?>
<!DOCTYPE svg PUBLIC "-//W3C//DTD SVG 20010904//EN"
 "http://www.w3.org/TR/2001/REC-SVG-20010904/DTD/svg10.dtd">
<svg version="1.0" xmlns="http://www.w3.org/2000/svg"
 width="184.000000pt" height="184.000000pt" viewBox="0 0 184.000000 184.000000"
 preserveAspectRatio="xMidYMid meet">
<metadata>
Created by potrace 1.11, written by Peter Selinger 2001-2013
</metadata>
<g transform="translate(0.000000,184.000000) scale(0.100000,-0.100000)"
fill="#000000" stroke="none">
<path d="M413 1708 c-134 -121 -143 -131 -132 -145 6 -7 15 -13 19 -13 5 0 42
-16 83 -35 41 -19 80 -35 86 -35 7 0 132 36 279 81 147 44 274 82 282 84 8 2
47 13 85 25 39 12 102 30 140 42 39 11 73 23 77 27 4 3 -191 7 -432 9 l-439 3
-48 -43z"/>
<path d="M1185 1523 c-99 -30 -187 -56 -195 -58 -15 -4 -87 -25 -355 -105 -77
-23 -151 -48 -165 -56 -30 -16 -207 -181 -200 -187 10 -7 136 -64 171 -77 34
-12 57 -6 482 121 343 102 452 139 475 158 77 69 174 162 171 165 -9 8 -112
58 -156 75 l-48 18 -180 -54z"/>
<path d="M1140 1060 c-124 -37 -256 -76 -295 -88 -38 -12 -139 -42 -224 -67
l-154 -47 -99 -91 c-54 -50 -98 -93 -98 -96 0 -8 187 -91 204 -91 7 0 32 6 57
14 24 8 222 67 439 132 426 126 398 114 520 228 92 87 91 81 13 116 -139 65
-111 65 -363 -10z"/>
<path d="M1185 630 c-49 -16 -151 -47 -225 -70 -74 -23 -200 -62 -279 -87
l-144 -45 40 -37 c21 -20 95 -85 163 -146 69 -60 136 -120 149 -132 13 -11 29
-19 35 -17 9 4 364 531 374 556 5 12 -15 8 -113 -22z"/>
</g>
</svg>
