<?xml version="1.0" standalone="no"?>
<!DOCTYPE svg PUBLIC "-//W3C//DTD SVG 20010904//EN"
 "http://www.w3.org/TR/2001/REC-SVG-20010904/DTD/svg10.dtd">
<svg version="1.0" xmlns="http://www.w3.org/2000/svg"
 width="151.000000pt" height="151.000000pt" viewBox="0 0 151.000000 151.000000"
 preserveAspectRatio="xMidYMid meet">
<metadata>
Created by potrace 1.11, written by Peter Selinger 2001-2013
</metadata>
<g transform="translate(0.000000,151.000000) scale(0.100000,-0.100000)"
fill="#000000" stroke="none">
<path d="M399 1434 c-149 -50 -270 -171 -320 -320 -33 -101 -32 -234 4 -327
50 -129 136 -225 252 -281 39 -18 81 -36 95 -39 21 -5 29 -17 43 -62 63 -204
268 -349 487 -344 288 7 508 245 493 532 -11 212 -151 388 -364 456 -30 10
-38 18 -48 54 -48 159 -184 293 -350 341 -84 25 -201 20 -292 -10z m287 -214
c41 -18 72 -42 96 -71 40 -51 53 -79 35 -80 -7 0 -93 -2 -192 -2 l-180 -2 0
-184 c0 -122 -4 -186 -11 -188 -17 -6 -92 54 -120 96 -40 61 -53 109 -50 181
7 141 106 253 247 279 60 11 103 4 175 -29z m168 -452 c-1 -51 -2 -96 -3 -100
0 -5 -46 -8 -100 -8 l-99 0 -1 100 -1 100 103 0 103 0 -2 -92z m328 -21 c139
-176 40 -434 -183 -475 -107 -20 -223 29 -290 121 -16 22 -28 45 -26 50 1 5
82 9 190 9 l187 0 1 37 c0 20 1 107 1 194 l0 157 41 -22 c22 -13 57 -45 79
-71z"/>
</g>
</svg>
