<?xml version="1.0" encoding="utf-8"?>
<svg version="1.1" id="Layer_1" xmlns="http://www.w3.org/2000/svg" xmlns:xlink="http://www.w3.org/1999/xlink" x="0px" y="0px"
   viewBox="0 0 48 48" style="enable-background:new 0 0 48 48;" xml:space="preserve">
  <title>apps</title>
  <g id="Layer_2" data-name="Layer 2">
    <g id="invisible_box" data-name="invisible box">
      <rect width="48" height="48" fill="none"/>
      <rect width="48" height="48" fill="none"/>
      <rect width="48" height="48" fill="none"/>
    </g>
    <g id="icons_Q2" data-name="icons Q2">
      <g>
        <rect x="4" y="4" width="12" height="12" rx="2" ry="2"/>
        <rect x="18" y="4" width="12" height="12" rx="2" ry="2"/>
        <rect x="32" y="4" width="12" height="12" rx="2" ry="2"/>
        <rect x="4" y="18" width="12" height="12" rx="2" ry="2"/>
        <rect x="18" y="18" width="12" height="12" rx="2" ry="2"/>
        <rect x="32" y="18" width="12" height="12" rx="2" ry="2"/>
        <rect x="4" y="32" width="12" height="12" rx="2" ry="2"/>
        <rect x="18" y="32" width="12" height="12" rx="2" ry="2"/>
        <rect x="32" y="32" width="12" height="12" rx="2" ry="2"/>
      </g>
    </g>
  </g>
  </svg>
  