<?xml version="1.0" encoding="utf-8"?>
<!-- Generator: Adobe Illustrator 20.0.0, SVG Export Plug-In . SVG Version: 6.00 Build 0)  -->
<svg version="1.1" id="Layer_1" xmlns="http://www.w3.org/2000/svg" xmlns:xlink="http://www.w3.org/1999/xlink" x="0px" y="0px"
	 viewBox="0 0 48 48" style="enable-background:new 0 0 48 48;" xml:space="preserve">
<path d="M30.7,8H17.8C10.3,8,3.6,13.7,3,21.2c-0.5,6.7,3.6,12.6,9.5,14.7V43c0,0.6,0.5,1,1,1c0.2,0,0.4-0.1,0.6-0.2l9.6-7.1h6.5
	c7.3,0,13.8-5.2,14.7-12.5C46,15.5,39.2,8,30.7,8z M30.7,11.8c3,0,5.9,1.3,7.9,3.6c2,2.3,2.9,5.3,2.5,8.3c-0.7,5.2-5.4,9.1-10.9,9.1
	h-7.8l-6.1,4.5v-4.2l-2.5-0.9c-4.5-1.6-7.3-6-7-10.8c0.4-5.4,5.2-9.7,11-9.7C17.8,11.8,30.7,11.8,30.7,11.8z"/>
</svg>
