<?xml version="1.0" encoding="utf-8"?>
<!-- Generator: Adobe Illustrator 20.0.0, SVG Export Plug-In . SVG Version: 6.00 Build 0)  -->
<svg version="1.1" id="Layer_1" xmlns="http://www.w3.org/2000/svg" xmlns:xlink="http://www.w3.org/1999/xlink" x="0px" y="0px"
	 viewBox="0 0 48 48" style="enable-background:new 0 0 48 48;" xml:space="preserve">
<g>
	<path d="M23.8,31.8c-2.8-3.1-6.9-4.8-11.2-4.8c-4.2,0-8.2,1.7-11.1,4.7c-0.8,0.8-0.7,2.1,0.1,2.8s2.1,0.7,2.8-0.1
		c2.1-2.2,5.1-3.5,8.2-3.5c3.1,0,6.2,1.3,8.2,3.5c0.4,0.4,0.9,0.6,1.5,0.6c0.5,0,1-0.2,1.4-0.5C24.5,33.9,24.5,32.6,23.8,31.8z"/>
	<path d="M46.5,37.5c-2.8-3.1-6.9-4.8-11.2-4.8c-4.2,0-8.2,1.7-11.1,4.7c-0.8,0.8-0.7,2.1,0.1,2.8c0.8,0.8,2.1,0.7,2.8-0.1
		c2.1-2.2,5.1-3.5,8.2-3.5c3.1,0,6.2,1.3,8.2,3.5c0.4,0.4,0.9,0.6,1.5,0.6c0.5,0,1-0.2,1.4-0.5C47.2,39.5,47.2,38.3,46.5,37.5z"/>
	<path d="M35.3,28.5c5,0,9-4,9-9c0-5-4-9-9-9c-5,0-9,4-9,9C26.3,24.5,30.4,28.5,35.3,28.5z M35.3,14.5c2.8,0,5,2.2,5,5
		c0,2.8-2.2,5-5,5s-5-2.2-5-5C30.3,16.8,32.6,14.5,35.3,14.5z"/>
	<path d="M12.7,23c5,0,9-4,9-9c0-5-4-9-9-9c-5,0-9,4-9,9C3.7,19,7.7,23,12.7,23z M12.7,9c2.8,0,5,2.2,5,5c0,2.8-2.2,5-5,5
		c-2.8,0-5-2.2-5-5C7.7,11.2,9.9,9,12.7,9z"/>
</g>
</svg>
