<?xml version="1.0" encoding="utf-8"?>
<!-- Generator: Adobe Illustrator 20.0.0, SVG Export Plug-In . SVG Version: 6.00 Build 0)  -->
<svg version="1.1" id="Layer_1" xmlns="http://www.w3.org/2000/svg" xmlns:xlink="http://www.w3.org/1999/xlink" x="0px" y="0px"
	 viewBox="0 0 48 48" style="enable-background:new 0 0 48 48;" xml:space="preserve">
<style type="text/css">
	.st0{fill-rule:evenodd;clip-rule:evenodd;}
</style>
<path class="st0" d="M41,47H7c-1.1,0-2-0.9-2-2V3c0-1.1,0.9-2,2-2h18.7c0.5,0,1,0.2,1.4,0.6l15.3,15.2c0.4,0.4,0.6,0.9,0.6,1.4V45
	C43,46.1,42.1,47,41,47z M23,5H9v38h30V21H25c-1.1,0-2-0.9-2-2V5z M27,17h10.3L27,6.7V17z"/>
</svg>
