<?xml version="1.0" encoding="utf-8"?>
<!-- Generator: Adobe Illustrator 20.0.0, SVG Export Plug-In . SVG Version: 6.00 Build 0)  -->
<svg version="1.1" id="Layer_1" xmlns="http://www.w3.org/2000/svg" xmlns:xlink="http://www.w3.org/1999/xlink" x="0px" y="0px"
	 viewBox="0 0 48 48" style="enable-background:new 0 0 48 48;" xml:space="preserve">
<path d="M24,3C12.4,3,3,12.4,3,24c0,8.7,5.3,16.2,12.9,19.4c2.5,1.1,5.2,1.6,8.1,1.6s5.6-0.6,8.1-1.6C39.7,40.2,45,32.7,45,24
	C45,12.4,35.6,3,24,3z M30.5,39.7c-0.5,0.2-1,0.4-1.5,0.5c-0.7,0.1-1-0.4-1-0.8c0-0.5,0-2.3,0-4.4c0-1.5-0.5-2.5-1.1-3
	c3.6-0.4,7.4-1.8,7.4-8c0-1.8-0.6-3.2-1.7-4.3c0.2-0.4,0.7-2-0.2-4.3c0,0-1.4-0.4-4.4,1.7c-1.3-0.4-2.7-0.5-4-0.5
	c-1.4,0-2.8,0.2-4,0.5c-3.1-2.1-4.4-1.7-4.4-1.7c-0.9,2.2-0.3,3.9-0.2,4.3c-1,1.1-1.7,2.6-1.7,4.3c0,6.2,3.8,7.6,7.3,8
	c-0.5,0.4-0.9,1.1-1,2.2c-0.9,0.4-3.3,1.1-4.7-1.3c0,0-0.9-1.5-2.5-1.7c0,0-1.6,0-0.1,1c0,0,1.1,0.5,1.8,2.4c0,0,0.9,3.1,5.4,2.2
	c0,1.3,0,2.4,0,2.7c0,0.4-0.3,0.9-1.1,0.8c-0.2-0.1-0.4-0.2-0.7-0.2C11.7,37.6,7,31.4,7,24c0-9.4,7.6-17,17-17s17,7.6,17,17
	C41,31.1,36.7,37.1,30.5,39.7z"/>
</svg>
