<svg xmlns="http://www.w3.org/2000/svg" viewBox="0 0 48 48"><g><path d="M24,2a22,22,0,0,0-7,42.88c1.1.2,1.5-.48,1.5-1.06s0-1.91,0-3.74c-6.12,1.33-7.41-2.95-7.41-2.95a5.83,5.83,0,0,0-2.44-3.22c-2-1.37.15-1.34.15-1.34a4.62,4.62,0,0,1,3.37,2.27c2,3.36,5.15,2.39,6.4,1.83A4.7,4.7,0,0,1,20,33.72c-4.89-.56-10-2.44-10-10.87a8.5,8.5,0,0,1,2.26-5.9,7.91,7.91,0,0,1,.22-5.82s1.85-.59,6,2.26a20.85,20.85,0,0,1,11,0c4.2-2.85,6-2.26,6-2.26a7.9,7.9,0,0,1,.22,5.82A8.49,8.49,0,0,1,38,22.85c0,8.45-5.14,10.31-10,10.86a5.25,5.25,0,0,1,1.49,4.07c0,2.94,0,5.31,0,6s.4,1.27,1.51,1.06A22,22,0,0,0,24,2Z" style="fill-rule:evenodd"/></g></svg>