<?xml version="1.0" encoding="utf-8"?>
<!-- Generator: Adobe Illustrator 20.0.0, SVG Export Plug-In . SVG Version: 6.00 Build 0)  -->
<svg version="1.1" id="Layer_1" xmlns="http://www.w3.org/2000/svg" xmlns:xlink="http://www.w3.org/1999/xlink" x="0px" y="0px"
	 viewBox="0 0 48 48" style="enable-background:new 0 0 48 48;" xml:space="preserve">
<path d="M38.8,9.1c-0.7-0.7-2-0.7-2.7,0c-0.7,0.7-0.7,2,0,2.7c3.3,3.3,5.1,7.6,5.1,12.2c0,9.5-7.7,17.2-17.2,17.2S6.8,33.5,6.8,24
	c0-4.6,1.8-9,5.1-12.2c0.7-0.7,0.8-2,0-2.7c-0.7-0.8-2-0.8-2.7,0C5.2,13,3,18.3,3,24c0,11.6,9.4,21,21,21s21-9.4,21-21
	C45,18.3,42.8,13,38.8,9.1L38.8,9.1z M24,24c1.1,0,1.9-0.9,1.9-1.9V4.9C25.9,3.9,25.1,3,24,3c-1.1,0-1.9,0.9-1.9,1.9v17.2
	C22.1,23.1,22.9,24,24,24z"/>
</svg>
