<?xml version="1.0" encoding="UTF-8"?>
<svg width="198px" height="102px" viewBox="0 0 198 102" version="1.1" xmlns="http://www.w3.org/2000/svg" xmlns:xlink="http://www.w3.org/1999/xlink">
    <title>Group 4</title>
    <g id="Pipeline---Upstream" stroke="none" stroke-width="1" fill="none" fill-rule="evenodd">
        <g id="Visualizer---Start" transform="translate(-51.000000, -374.000000)">
            <g id="Group-4" transform="translate(51.000000, 374.000000)">
                <g id="Group-3" transform="translate(71.000000, 0.000000)" fill="#D5D5D5" fill-rule="nonzero">
                    <g id="arrow/arrow-skip-forward">
                        <path d="M22.5166666,11.6666666 L28.2333333,17.2666666 L29.5166667,18.6666666 L48.9999999,18.6666666 L48.9999999,44.3333334 L6.99999991,44.3333334 L6.99999991,11.6666666 L22.5166666,11.6666666 L22.5166666,11.6666666 Z M24.5,6.99999991 L4.66666657,6.99999991 C3.37800215,6.99999991 2.33333323,8.04466883 2.33333323,9.33333326 L2.33333323,46.6666667 C2.33333323,47.9553312 3.37800215,48.9999999 4.66666657,48.9999999 L51.3333332,48.9999999 C52.6219979,48.9999999 53.6666668,47.9553312 53.6666668,46.6666667 L53.6666668,16.3333333 C53.6666668,15.0446689 52.6219979,13.9999999 51.3333332,13.9999999 L31.5,13.9999999 L24.5,6.99999991 Z" id="Shape"></path>
                    </g>
                    <g id="arrow/arrow-skip-forward-copy" transform="translate(19.000000, 22.000000)">
                        <path d="M9,0.749913832 C4.44365079,0.749913832 0.749999966,4.44365079 0.749999966,9 C0.749999966,13.5563492 4.44365079,17.25 9,17.25 C13.5563492,17.25 17.2500862,13.5563492 17.2500862,9 C17.2600281,6.80890512 16.3940548,4.7046538 14.8447005,3.15529953 C13.2953462,1.60594525 11.1910949,0.739971914 9,0.749913832 Z M12.1125,11.0625 C12.4049185,11.3170628 12.4685521,11.7465898 12.2625,12.075 C12.1316888,12.2593603 11.9247018,12.3748853 11.6991171,12.3894391 C11.4735323,12.403993 11.2534166,12.316023 11.1,12.15 L9,10.05 L6.89999999,12.15 C6.7465834,12.316023 6.52646768,12.403993 6.30088295,12.3894391 C6.07529821,12.3748853 5.86831121,12.2593603 5.73749999,12.075 C5.5314479,11.7465898 5.59508153,11.3170628 5.88749999,11.0625 L7.95,9 L5.88749999,6.93749999 C5.60887612,6.67555706 5.54678973,6.2564739 5.73749999,5.92499999 C5.86831121,5.74063971 6.07529821,5.62511472 6.30088295,5.61056086 C6.52646768,5.59600701 6.7465834,5.68397699 6.89999999,5.84999999 L9,7.95 L11.1,5.84999999 C11.2534166,5.68397699 11.4735323,5.59600701 11.6991171,5.61056086 C11.9247018,5.62511472 12.1316888,5.74063971 12.2625,5.92499999 C12.4532103,6.2564739 12.3911239,6.67555706 12.1125,6.93749999 L10.05,9 L12.1125,11.0625 Z" id="Icon"></path>
                    </g>
                </g>
                <text id="Enter-in-pipeline-na" font-family="Helvetica" font-size="14" font-weight="normal" line-spacing="18" fill="#9A9A9A">
                    <tspan x="4.44873047" y="80">Enter in pipeline name or ID to </tspan>
                    <tspan x="16.8901367" y="98">show connected pipelines.</tspan>
                </text>
            </g>
        </g>
    </g>
</svg>