<?xml version="1.0" encoding="UTF-8"?>
<svg width="360px" height="312px" viewBox="0 0 360 312" version="1.1" xmlns="http://www.w3.org/2000/svg" xmlns:xlink="http://www.w3.org/1999/xlink">
    <title>Group 2</title>
    <defs>
        <linearGradient x1="0%" y1="50%" x2="100%" y2="50%" id="linearGradient-1">
            <stop stop-color="#F8F8F8" offset="0%"></stop>
            <stop stop-color="#F8F8F8" stop-opacity="0" offset="100%"></stop>
        </linearGradient>
    </defs>
    <g id="Pipeline---Visualizer" stroke="none" stroke-width="1" fill="none" fill-rule="evenodd">
        <g id="Visualizer---Sidebar-Hidden" transform="translate(-540.000000, -299.000000)">
            <g id="Group-2" transform="translate(540.000000, 299.000000)">
                <g id="Group" transform="translate(10.000000, 0.000000)">
                    <line x1="7.228739" y1="91.7302053" x2="36.8595383" y2="90.9824047" id="Line-Copy-4" stroke="#E8E8E8" stroke-width="12" stroke-linecap="square"></line>
                    <circle id="Oval" fill="#FFFFFF" cx="51.0997067" cy="90.7331378" r="20.9384164"></circle>
                    <line x1="68.0498534" y1="91.2316716" x2="111.639597" y2="90.9824047" id="Line" stroke="#E8E8E8" stroke-width="12" stroke-linecap="square"></line>
                    <line x1="311.334311" y1="91.2316716" x2="333.269795" y2="90.7331378" id="Line-Copy-5" stroke="#E8E8E8" stroke-width="12" stroke-linecap="square"></line>
                    <line x1="148.812317" y1="33.6494131" x2="192.683284" y2="33.154106" id="Line-Copy" stroke="#E8E8E8" stroke-width="12"></line>
                    <line x1="148.812317" y1="91.4793251" x2="192.683284" y2="90.984018" id="Line-Copy-2" stroke="#E8E8E8" stroke-width="12"></line>
                    <line x1="227.721678" y1="91.1070381" x2="270.17248" y2="90.9824047" id="Line-Copy-3" stroke="#E8E8E8" stroke-width="12"></line>
                    <g transform="translate(186.700880, 67.800587)" fill="#0066DF" fill-rule="nonzero" id="input-solid-copy-3">
                        <g>
                            <path d="M22.4340176,5.73313776 C31.726492,5.73313776 39.2595309,13.4335775 39.2595309,22.9325513 C39.2595309,32.4315251 31.726492,40.1319649 22.4340176,40.1319649 C13.1415432,40.1319649 5.60850433,32.4315251 5.60850433,22.9325513 C5.65958666,13.455291 13.1627846,5.78535526 22.4340176,5.73313776 L22.4340176,5.73313776 Z M22.4340176,1.91082638 C11.0765489,1.91082638 1.86950138,11.3226944 1.86950138,22.9325513 C1.86950138,34.5424082 11.0765489,43.9540568 22.4340176,43.9540568 C33.7914863,43.9540568 42.9987485,34.5424082 42.9987485,22.9325513 C43.0235304,17.3495073 40.8649459,11.9877461 37.0029191,8.03989648 C33.1408923,4.09204687 27.8956911,1.88549376 22.4340176,1.91082638 Z" id="Shape"></path>
                        </g>
                    </g>
                    <g transform="translate(196.671554, 77.771261)" fill="#0066DF" fill-rule="nonzero" id="input-solid-copy">
                        <g>
                            <path d="M15.7401101,19.1814481 C16.3813247,19.130558 17.0157796,19.3417806 17.4985337,19.7668622 C18.2531561,20.4015504 18.5495026,21.4292856 18.2486607,22.368316 C17.9478188,23.3073464 17.1094212,23.9715379 16.1264674,24.0495501 C15.1435137,24.1275623 14.2108444,23.6039317 13.7656492,22.7241106 C13.320454,21.8442895 13.4509793,20.7826755 14.0960411,20.0369013 C14.5057008,19.5409932 15.0988955,19.2323381 15.7401101,19.1814481 Z M5.34677416,18.5246823 C6.32900181,17.4085979 8.02862433,17.2964195 9.14901986,18.2737268 C10.2694154,19.251034 10.3890712,20.9501465 9.41670329,22.0748314 C8.44433537,23.1995164 6.74576586,23.3266473 5.61681326,22.3592376 C4.50232119,21.3655358 4.38254913,19.6647726 5.34677416,18.5246823 Z M20.7341805,14.3920478 C21.4286754,14.173803 22.1867831,14.3737673 22.6832845,14.9061584 C23.3374168,15.6075748 23.3625798,16.6877022 22.7418203,17.418819 C22.1210608,18.1499357 21.0511527,18.3002858 20.2529326,17.7685728 C19.6470652,17.3649905 19.326795,16.6493509 19.4295141,15.9286549 C19.5322332,15.2079589 20.0396857,14.6102926 20.7341805,14.3920478 Z M3.69845548,8.98906157 C5.33897874,8.85781971 6.77527815,10.081334 6.90652001,11.7218573 C7.03776187,13.3623805 5.81424756,14.7986799 4.1737243,14.9299218 C2.53320105,15.0611637 1.09690163,13.8376494 0.965659774,12.1971261 C0.834417914,10.5566028 2.05793223,9.12030343 3.69845548,8.98906157 Z M20.3997138,8.49007019 C20.9226931,7.88999833 21.8302597,7.82018551 22.438862,8.33321263 C23.0474643,8.84623975 23.1322125,9.75253371 22.6292767,10.3695015 C22.3770216,10.678951 22.0089215,10.871441 21.6108586,10.9020612 C21.2127958,10.9326814 20.8195866,10.7987537 20.5229717,10.5315249 C19.931593,9.9987352 19.8767344,9.09014205 20.3997138,8.49007019 Z M17.8414265,4.08058407 C18.1689705,4.04987682 18.4945858,4.15634668 18.7407136,4.3746334 C19.161086,4.63455885 19.3873719,5.11896549 19.316945,5.60816307 C19.2465181,6.09736065 18.8927794,6.49826458 18.4161579,6.62905515 C17.9395364,6.75984571 17.4307238,6.59563606 17.120479,6.21089929 C16.6293078,5.77791328 16.5810017,5.02916756 17.0124634,4.53665686 C17.2137302,4.27642689 17.5138826,4.11129131 17.8414265,4.08058407 Z M12.9380439,2.69077696 C13.2257753,2.67022471 13.5088692,2.77172976 13.7179863,2.97043007 C14.0513922,3.2550311 14.179733,3.71290883 14.0428222,4.12933726 C13.9059114,4.5457657 13.5309023,4.8381551 13.0936589,4.86938677 C12.6564155,4.90061844 12.2436557,4.66449824 12.0489471,4.27175691 C11.8542384,3.87901558 11.9161972,3.40754503 12.2057673,3.07844571 C12.3845198,2.85204043 12.6503125,2.7113292 12.9380439,2.69077696 Z" id="Combined-Shape"></path>
                        </g>
                    </g>
                    <path d="M148.812317,90.7331378 C170.851211,90.7331378 170.851211,147.565982 190.68915,147.565982" id="Path" stroke="#E8E8E8" stroke-width="12"></path>
                    <path d="M70.0439883,32.9032258 C92.0828824,32.9032258 92.0828824,89.7360704 111.920821,89.7360704" id="Path-Copy" stroke="#E8E8E8" stroke-width="12" transform="translate(90.982405, 61.319648) scale(1, -1) translate(-90.982405, -61.319648) "></path>
                    <path d="M229.57478,90.7331378 C251.613674,90.7331378 251.613674,147.565982 271.451613,147.565982" id="Path" stroke="#E8E8E8" stroke-width="12" transform="translate(250.513196, 119.149560) scale(-1, 1) translate(-250.513196, -119.149560) "></path>
                    <path d="M229.57478,32.9032258 C251.613674,32.9032258 251.613674,89.7360704 271.451613,89.7360704" id="Path-Copy-2" stroke="#E8E8E8" stroke-width="12" transform="translate(250.513196, 61.319648) scale(-1, -1) translate(-250.513196, -61.319648) "></path>
                    <g transform="translate(107.932551, 67.800587)" fill="#15C046" fill-rule="nonzero" id="input-solid">
                        <g>
                            <path d="M22.4340176,1.91082638 C11.0765489,1.91082638 1.86950138,11.3226944 1.86950138,22.9325513 C1.86950138,34.5424082 11.0765489,43.9540568 22.4340176,43.9540568 C33.7914863,43.9540568 42.9987485,34.5424082 42.9987485,22.9325513 C43.0235304,17.3495073 40.8649459,11.9877461 37.0029191,8.03989648 C33.1408923,4.09204687 27.8956911,1.88549376 22.4340176,1.91082638 Z M33.090176,17.5816227 L20.0036657,30.9589443 C19.6672922,31.3337042 19.1925608,31.5470465 18.6950146,31.5470465 C18.1974685,31.5470465 17.7227371,31.3337042 17.3863636,30.9589443 L11.8713343,25.3213588 C11.1768173,24.6539121 11.0220565,23.5860626 11.497434,22.7414467 C11.823503,22.2716854 12.339453,21.9773207 12.901761,21.9402366 C13.464069,21.9031525 14.0127445,22.1273054 14.3951613,22.5503421 L18.6950146,26.9457478 L30.4728739,14.9061583 C31.2171604,14.3355387 32.2586495,14.4111998 32.916512,15.0836815 C33.5743745,15.7561632 33.6483909,16.8207965 33.090176,17.5816227 Z" id="Shape"></path>
                        </g>
                    </g>
                    <g transform="translate(186.700880, 124.633431)" fill="#15C046" fill-rule="nonzero" id="input-solid">
                        <g>
                            <path d="M22.4340176,1.91082638 C11.0765489,1.91082638 1.86950138,11.3226944 1.86950138,22.9325513 C1.86950138,34.5424082 11.0765489,43.9540568 22.4340176,43.9540568 C33.7914863,43.9540568 42.9987485,34.5424082 42.9987485,22.9325513 C43.0235304,17.3495073 40.8649459,11.9877461 37.0029191,8.03989648 C33.1408923,4.09204687 27.8956911,1.88549376 22.4340176,1.91082638 Z M33.090176,17.5816227 L20.0036657,30.9589443 C19.6672922,31.3337042 19.1925608,31.5470465 18.6950146,31.5470465 C18.1974685,31.5470465 17.7227371,31.3337042 17.3863636,30.9589443 L11.8713343,25.3213588 C11.1768173,24.6539121 11.0220565,23.5860626 11.497434,22.7414467 C11.823503,22.2716854 12.339453,21.9773207 12.901761,21.9402366 C13.464069,21.9031525 14.0127445,22.1273054 14.3951613,22.5503421 L18.6950146,26.9457478 L30.4728739,14.9061583 C31.2171604,14.3355387 32.2586495,14.4111998 32.916512,15.0836815 C33.5743745,15.7561632 33.6483909,16.8207965 33.090176,17.5816227 Z" id="Shape"></path>
                        </g>
                    </g>
                    <g transform="translate(107.932551, 10.967742)" fill="#15C046" fill-rule="nonzero" id="input-solid">
                        <g>
                            <path d="M22.4340176,1.91082638 C11.0765489,1.91082638 1.86950138,11.3226944 1.86950138,22.9325513 C1.86950138,34.5424082 11.0765489,43.9540568 22.4340176,43.9540568 C33.7914863,43.9540568 42.9987485,34.5424082 42.9987485,22.9325513 C43.0235304,17.3495073 40.8649459,11.9877461 37.0029191,8.03989648 C33.1408923,4.09204687 27.8956911,1.88549376 22.4340176,1.91082638 Z M33.090176,17.5816227 L20.0036657,30.9589443 C19.6672922,31.3337042 19.1925608,31.5470465 18.6950146,31.5470465 C18.1974685,31.5470465 17.7227371,31.3337042 17.3863636,30.9589443 L11.8713343,25.3213588 C11.1768173,24.6539121 11.0220565,23.5860626 11.497434,22.7414467 C11.823503,22.2716854 12.339453,21.9773207 12.901761,21.9402366 C13.464069,21.9031525 14.0127445,22.1273054 14.3951613,22.5503421 L18.6950146,26.9457478 L30.4728739,14.9061583 C31.2171604,14.3355387 32.2586495,14.4111998 32.916512,15.0836815 C33.5743745,15.7561632 33.6483909,16.8207965 33.090176,17.5816227 Z" id="Shape"></path>
                        </g>
                    </g>
                    <g transform="translate(28.167155, 67.800587)" fill="#15C046" fill-rule="nonzero" id="input-solid">
                        <g>
                            <path d="M42.9985338,22.9325513 C42.952119,34.1358679 34.3186196,43.3333722 23.3701113,43.8432495 C12.4216029,44.3531269 3.00574258,35.9961901 1.96297645,24.8435973 L25.42522,24.8435973 L21.1253666,29.239003 C20.7135494,29.6116258 20.4938419,30.1582527 20.5304256,30.7192017 C20.5670092,31.2801507 20.8557561,31.7921274 21.3123167,32.1055719 C22.097759,32.698327 23.1971469,32.5734582 23.8361437,31.818915 L31.2206745,24.2702835 C31.5872875,23.926435 31.7959919,23.4411541 31.7959919,22.9325513 C31.7959919,22.4239486 31.5872875,21.9386676 31.2206745,21.5948192 L23.8361437,13.9506353 C23.1458285,13.3031697 22.1248319,13.1872046 21.3123167,13.6639785 C20.8527676,13.9972935 20.5648021,14.524709 20.5285242,15.0995128 C20.4922462,15.6743165 20.7115262,16.2351848 21.1253666,16.6260997 L25.42522,21.0215054 L1.96297645,21.0215054 C3.00574258,9.86891253 12.4216029,1.51197571 23.3701113,2.02185309 C34.3186196,2.53173047 42.952119,11.7292348 42.9985338,22.9325513 Z" id="Path"></path>
                        </g>
                    </g>
                    <!-- <rect id="Rectangle" fill="url(#linearGradient-1)" x="0.249266862" y="0" width="25.9237537" height="181.466276"></rect> -->
                    <!-- <rect id="Rectangle-Copy" fill="url(#linearGradient-1)" transform="translate(326.290323, 90.733138) scale(-1, 1) translate(-326.290323, -90.733138) " x="313.328446" y="0" width="25.9237537" height="181.466276"></rect> -->
                    <g transform="translate(186.700880, 10.967742)" fill="#D5D5D5" fill-rule="nonzero" id="input-solid">
                        <g>
                            <path d="M22.4340176,5.73313776 C31.726492,5.73313776 39.2595309,13.4335775 39.2595309,22.9325513 C39.2595309,32.4315251 31.726492,40.1319649 22.4340176,40.1319649 C13.1415432,40.1319649 5.60850433,32.4315251 5.60850433,22.9325513 C5.65958666,13.455291 13.1627846,5.78535526 22.4340176,5.73313776 L22.4340176,5.73313776 Z M22.4340176,1.91082638 C11.0765489,1.91082638 1.86950138,11.3226944 1.86950138,22.9325513 C1.86950138,34.5424082 11.0765489,43.9540568 22.4340176,43.9540568 C33.7914863,43.9540568 42.9987485,34.5424082 42.9987485,22.9325513 C43.0235304,17.3495073 40.8649459,11.9877461 37.0029191,8.03989648 C33.1408923,4.09204687 27.8956911,1.88549376 22.4340176,1.91082638 Z" id="Shape"></path>
                        </g>
                    </g>
                    <g transform="translate(266.466276, 67.800587)" fill="#D5D5D5" fill-rule="nonzero" id="input-solid-copy-2">
                        <g>
                            <path d="M22.4340176,5.73313776 C31.726492,5.73313776 39.2595309,13.4335775 39.2595309,22.9325513 C39.2595309,32.4315251 31.726492,40.1319649 22.4340176,40.1319649 C13.1415432,40.1319649 5.60850433,32.4315251 5.60850433,22.9325513 C5.65958666,13.455291 13.1627846,5.78535526 22.4340176,5.73313776 L22.4340176,5.73313776 Z M22.4340176,1.91082638 C11.0765489,1.91082638 1.86950138,11.3226944 1.86950138,22.9325513 C1.86950138,34.5424082 11.0765489,43.9540568 22.4340176,43.9540568 C33.7914863,43.9540568 42.9987485,34.5424082 42.9987485,22.9325513 C43.0235304,17.3495073 40.8649459,11.9877461 37.0029191,8.03989648 C33.1408923,4.09204687 27.8956911,1.88549376 22.4340176,1.91082638 Z" id="Shape"></path>
                        </g>
                    </g>
                </g>
                <text id="Enter-Pipeline-Name" font-family="Helvetica-Bold, Helvetica" font-size="20" font-weight="bold" fill="#303030">
                    <tspan x="58.2441406" y="220.466276">Enter Pipeline Name or ID</tspan>
                </text>
                <text id="You-can-also-view-th" font-family="Helvetica" font-size="16" font-weight="normal" line-spacing="22" fill="#303030">
                    <tspan x="13.53125" y="260.466276">You can also view this page from your pipeline. </tspan>
                    <tspan x="2.13671875" y="282.466276">Simply right click on the trigger job in your pipeline </tspan>
                    <tspan x="78.609375" y="304.466276">and click on Open visualizer.</tspan>
                </text>
            </g>
        </g>
    </g>
</svg>
