<svg xmlns="http://www.w3.org/2000/svg" viewBox="0 0 48 48"><g><rect x="21.19" y="21.31" width="5.63" height="5.44" transform="translate(-6.39 8.87) rotate(-18.52)" /><rect x="21.19" y="21.31" width="5.63" height="5.44" transform="translate(-6.39 8.87) rotate(-18.52)" /><path d="M42.32,18.5C38.2,4.75,32.25,1.55,18.5,5.68S1.55,15.75,5.68,29.5,15.75,46.45,29.5,42.32,46.45,32.25,42.32,18.5Zm-6.94,8.92-2.59.86.9,2.69a2.08,2.08,0,0,1-1.31,2.62,1.79,1.79,0,0,1-.7.1,2.13,2.13,0,0,1-1.92-1.41l-.9-2.69-5.34,1.79.9,2.69a2.08,2.08,0,0,1-1.31,2.62,1.79,1.79,0,0,1-.7.1,2.13,2.13,0,0,1-1.92-1.41l-.9-2.69L17,33.56a1.79,1.79,0,0,1-.7.1,2.13,2.13,0,0,1-1.92-1.41,2.08,2.08,0,0,1,1.31-2.62l2.59-.86-1.73-5.15L14,24.48a1.79,1.79,0,0,1-.7.1,2.13,2.13,0,0,1-1.92-1.41,2.08,2.08,0,0,1,1.31-2.62l2.59-.86L14.34,17a2.07,2.07,0,0,1,3.93-1.31l.9,2.69,5.34-1.79-.9-2.69a2.07,2.07,0,0,1,3.93-1.31l.9,2.69L31,14.41a2.07,2.07,0,1,1,1.31,3.93l-2.59.86,1.73,5.15,2.59-.86a2.07,2.07,0,0,1,1.31,3.93Z" /></g></svg>