<svg width="346pt" height="398pt" version="1.0" viewBox="0 0 346.000000 398.000000" xmlns="http://www.w3.org/2000/svg"><g transform="translate(0 398) scale(.1 -.1)"><path d="m1665 3919c-33-33-100-93-150-134-382-311-857-489-1390-521l-115-7-6-35c-11-56 4-511 20-665 110-1002 494-1787 1096-2238 139-104 319-213 449-271 84-38 105-43 167-43 66 0 78 4 200 63 256 126 429 247 623 436 145 142 222 235 336 406 232 347 406 792 494 1265 51 271 63 408 68 753l5 332h-53c-83 0-312 27-431 50-442 85-838 288-1149 587-47 46-90 83-95 83s-36-27-69-61zm896-1302l113-108-632-632-632-632-312 313-313 313 110 103 110 104 192-197 192-196 523 523c288 287 526 521 529 520 3-2 57-52 120-111z"/></g></svg>
