<svg xmlns="http://www.w3.org/2000/svg" viewBox="0 0 48 48"><g><path d="M35.71,41.53C34.35,43,31.22,44,28.41,44H28.1c-9.44,0-11.49-6.94-11.49-11V21.76H12.9a.78.78,0,0,1-.78-.78h0V15.67A1.32,1.32,0,0,1,13,14.42c4.84-1.71,6.36-5.93,6.59-9.15C19.65,4.42,20.1,4,20.84,4h5.54a.78.78,0,0,1,.78.78v9h6.49a.78.78,0,0,1,.78.78v6.39a.78.78,0,0,1-.78.78H27.13v10.4c0,2.61,1.72,3.33,2.79,3.33a7.82,7.82,0,0,0,2.53-.54,1.68,1.68,0,0,1,1-.18.82.82,0,0,1,.57.62l1.72,5C35.88,40.78,36,41.22,35.71,41.53Z" /></g></svg>